<svg id="svg" version="1.1" xmlns="http://www.w3.org/2000/svg" xmlns:xlink="http://www.w3.org/1999/xlink" width="400" height="374.6646795827124" viewBox="0, 0, 400,374.6646795827124"><g id="svgg"><path id="path0" d="M144.113 125.366 C 143.597 125.451,132.461 125.758,129.732 125.762 C 128.785 125.764,128.373 126.400,129.048 126.818 C 129.205 126.914,129.258 127.191,129.165 127.431 C 129.056 127.715,129.191 127.878,129.551 127.894 C 130.794 127.949,132.923 128.383,134.154 128.830 C 135.246 129.227,136.040 129.870,136.098 130.402 C 136.171 131.070,136.597 132.042,136.818 132.042 C 136.947 132.042,136.983 132.310,136.897 132.638 C 136.811 132.966,136.862 133.234,137.010 133.234 C 137.158 133.234,137.306 133.469,137.338 133.756 C 137.483 135.041,137.541 141.580,137.407 141.580 C 137.325 141.580,137.222 142.553,137.179 143.741 C 137.136 144.929,137.053 146.170,136.994 146.498 C 136.936 146.826,136.959 147.217,137.046 147.366 C 137.436 148.037,137.701 152.320,137.380 152.757 C 137.260 152.921,137.156 153.390,137.149 153.800 C 137.104 156.606,137.117 161.990,137.182 167.213 C 137.224 170.574,137.234 176.140,137.205 179.583 C 137.176 183.025,137.180 188.256,137.214 191.207 C 137.248 194.158,137.169 196.889,137.038 197.276 C 136.888 197.719,136.947 198.274,137.196 198.774 C 137.414 199.211,137.559 200.101,137.518 200.753 C 137.477 201.404,137.351 203.279,137.237 204.918 C 137.124 206.557,137.046 208.066,137.064 208.271 C 137.082 208.476,137.116 209.382,137.140 210.283 C 137.164 211.185,137.267 211.922,137.370 211.922 C 137.472 211.922,137.508 213.163,137.451 214.680 C 137.393 216.196,137.326 218.074,137.302 218.852 C 137.278 219.631,137.143 220.268,137.002 220.268 C 136.861 220.268,136.799 220.728,136.865 221.291 C 136.931 221.853,136.867 222.240,136.723 222.152 C 136.580 222.063,136.492 222.508,136.527 223.141 C 136.563 223.774,136.493 224.527,136.372 224.814 C 136.250 225.101,136.225 225.528,136.315 225.763 C 136.405 225.998,136.367 226.233,136.229 226.285 C 136.092 226.336,135.894 227.017,135.790 227.798 C 135.686 228.579,135.474 229.552,135.319 229.959 C 135.164 230.367,135.095 230.700,135.166 230.700 C 135.236 230.700,135.095 231.265,134.852 231.954 C 134.608 232.643,134.473 233.374,134.552 233.578 C 134.630 233.782,134.491 234.356,134.242 234.854 C 133.994 235.352,133.874 235.896,133.977 236.062 C 134.079 236.228,134.007 236.364,133.816 236.364 C 133.625 236.364,133.541 236.554,133.630 236.786 C 133.720 237.019,133.462 237.589,133.057 238.053 C 132.653 238.517,132.380 239.132,132.452 239.419 C 132.524 239.706,132.477 239.876,132.348 239.797 C 132.220 239.717,132.041 240.019,131.951 240.467 C 131.861 240.915,131.483 241.952,131.111 242.772 C 130.739 243.592,130.428 244.392,130.419 244.551 C 130.410 244.710,130.103 245.162,129.737 245.557 C 129.372 245.952,129.147 246.395,129.238 246.543 C 129.329 246.690,129.293 246.774,129.158 246.729 C 129.023 246.684,128.912 246.717,128.912 246.803 C 128.912 246.889,128.742 247.157,128.534 247.399 C 127.166 248.989,126.677 249.673,126.677 250.000 C 126.677 250.205,126.552 250.373,126.399 250.373 C 126.246 250.373,126.036 250.641,125.931 250.969 C 125.827 251.297,125.555 251.565,125.326 251.565 C 125.097 251.565,124.764 251.836,124.587 252.167 C 124.410 252.498,123.661 253.372,122.923 254.110 C 122.186 254.848,121.657 255.574,121.750 255.723 C 121.842 255.872,121.760 256.092,121.568 256.210 C 121.330 256.358,121.299 256.294,121.472 256.007 C 121.686 255.652,121.649 255.650,121.223 255.995 C 120.947 256.219,120.792 256.514,120.877 256.653 C 120.963 256.791,120.489 257.153,119.825 257.458 C 119.161 257.762,118.716 258.110,118.838 258.231 C 118.959 258.353,118.827 258.363,118.545 258.255 C 118.213 258.128,118.033 258.203,118.033 258.470 C 118.033 258.696,117.563 259.134,116.990 259.443 C 116.416 259.752,115.946 260.117,115.946 260.256 C 115.946 260.394,115.699 260.507,115.396 260.507 C 115.094 260.507,114.607 260.772,114.313 261.096 C 114.020 261.420,113.678 261.622,113.553 261.544 C 113.428 261.467,112.943 261.604,112.475 261.848 C 112.007 262.092,111.449 262.292,111.234 262.293 C 111.020 262.294,110.926 262.428,111.026 262.590 C 111.132 262.760,111.009 262.808,110.735 262.703 C 110.471 262.602,109.978 262.768,109.625 263.079 C 109.275 263.385,109.080 263.480,109.191 263.289 C 109.314 263.077,108.811 263.154,107.901 263.487 C 107.080 263.787,106.408 263.950,106.408 263.849 C 106.408 263.748,106.269 263.805,106.100 263.975 C 105.919 264.155,105.268 264.205,104.535 264.094 C 102.349 263.765,101.314 264.380,101.824 265.707 C 101.970 266.090,107.146 266.302,107.718 265.949 C 107.875 265.851,108.417 265.751,108.920 265.725 C 109.424 265.700,110.104 265.594,110.432 265.488 C 110.760 265.383,111.498 265.218,112.072 265.121 C 112.645 265.024,113.242 264.818,113.398 264.663 C 113.554 264.508,113.963 264.382,114.307 264.382 C 114.651 264.382,115.114 264.214,115.334 264.009 C 115.561 263.798,115.654 263.782,115.548 263.972 C 115.343 264.340,116.747 263.921,117.919 263.265 C 118.266 263.071,118.617 262.978,118.697 263.059 C 118.778 263.140,119.520 262.867,120.345 262.453 C 121.170 262.038,122.001 261.699,122.192 261.699 C 122.383 261.699,122.457 261.566,122.357 261.404 C 122.257 261.242,122.349 261.174,122.563 261.252 C 123.064 261.436,123.519 261.121,123.958 260.286 C 124.152 259.919,124.406 259.633,124.525 259.651 C 125.400 259.783,125.909 259.587,125.484 259.282 C 125.123 259.022,125.152 258.998,125.633 259.159 C 126.652 259.500,126.744 259.480,126.841 258.897 C 126.950 258.242,127.489 257.835,128.259 257.829 C 128.556 257.826,128.715 257.690,128.614 257.526 C 128.513 257.362,128.643 257.228,128.904 257.228 C 129.165 257.228,129.835 256.772,130.392 256.215 C 130.950 255.657,131.482 255.277,131.575 255.370 C 131.668 255.463,131.744 255.375,131.744 255.174 C 131.744 254.973,131.878 254.891,132.042 254.993 C 132.206 255.094,132.340 255.060,132.340 254.918 C 132.340 254.776,132.551 254.399,132.809 254.081 C 133.067 253.763,133.181 253.703,133.061 253.949 C 132.942 254.195,133.527 253.666,134.361 252.772 C 135.196 251.879,135.799 251.020,135.702 250.863 C 135.606 250.707,135.665 250.664,135.834 250.769 C 136.003 250.873,136.497 250.422,136.932 249.765 C 137.367 249.108,137.953 248.301,138.235 247.972 C 138.517 247.642,138.748 247.276,138.748 247.159 C 138.748 247.041,139.016 246.667,139.344 246.326 C 140.372 245.260,141.282 243.998,141.282 243.638 C 141.282 243.448,141.493 243.117,141.751 242.903 C 142.285 242.459,144.094 238.790,144.056 238.227 C 144.042 238.022,144.150 237.854,144.295 237.854 C 144.441 237.854,144.560 237.644,144.560 237.387 C 144.560 237.131,144.723 236.628,144.922 236.270 C 145.121 235.911,145.289 235.417,145.295 235.171 C 145.301 234.925,145.628 234.273,146.022 233.721 C 146.415 233.169,146.860 232.096,147.011 231.336 C 147.162 230.577,147.313 229.821,147.347 229.657 C 147.381 229.493,147.489 229.225,147.587 229.061 C 147.805 228.695,148.209 225.675,148.289 223.813 C 148.321 223.058,148.431 222.305,148.532 222.140 C 148.634 221.976,148.747 221.387,148.783 220.831 C 148.819 220.276,149.005 219.553,149.195 219.225 C 149.385 218.897,149.486 218.159,149.419 217.586 C 149.062 214.522,149.170 188.376,149.539 188.376 C 149.752 188.376,149.925 188.493,149.925 188.637 C 149.925 188.782,150.361 189.080,150.894 189.300 C 151.427 189.521,152.177 190.074,152.561 190.529 C 152.944 190.985,153.356 191.298,153.475 191.224 C 153.594 191.150,153.880 191.351,154.110 191.670 C 154.340 191.989,154.700 192.250,154.909 192.250 C 155.119 192.250,155.291 192.407,155.291 192.598 C 155.291 192.789,155.370 192.866,155.468 192.769 C 155.565 192.671,156.239 192.923,156.965 193.329 C 157.691 193.734,158.407 193.990,158.556 193.898 C 158.704 193.806,158.923 193.888,159.042 194.080 C 159.186 194.313,159.127 194.349,158.867 194.188 C 158.599 194.022,158.549 194.063,158.706 194.317 C 158.871 194.583,159.025 194.596,159.259 194.363 C 159.723 193.898,160.060 193.963,160.060 194.518 C 160.060 194.816,160.224 194.934,160.497 194.829 C 160.738 194.736,161.021 194.801,161.127 194.972 C 161.233 195.143,161.572 195.217,161.881 195.136 C 162.191 195.055,162.526 195.122,162.626 195.285 C 162.727 195.448,163.056 195.516,163.358 195.438 C 163.659 195.359,163.948 195.422,164.000 195.577 C 164.116 195.925,173.210 196.296,173.969 195.983 C 174.270 195.860,175.046 195.705,175.693 195.639 C 176.341 195.573,176.945 195.421,177.035 195.301 C 177.125 195.180,177.399 195.036,177.645 194.979 C 177.891 194.923,178.361 194.808,178.689 194.725 C 179.016 194.642,179.654 194.506,180.104 194.422 C 180.555 194.338,180.924 194.184,180.924 194.079 C 180.924 193.975,181.281 193.869,181.716 193.844 C 182.151 193.819,182.629 193.581,182.777 193.316 C 182.926 193.051,183.159 192.903,183.296 192.988 C 183.627 193.193,185.142 192.395,184.894 192.147 C 184.787 192.040,184.990 191.952,185.345 191.952 C 185.700 191.952,185.991 191.810,185.991 191.637 C 185.991 191.463,186.125 191.404,186.289 191.505 C 186.453 191.607,186.587 191.547,186.587 191.374 C 186.587 191.200,186.835 191.058,187.138 191.058 C 187.440 191.058,187.993 190.794,188.365 190.471 C 188.738 190.148,189.295 189.803,189.603 189.706 C 189.912 189.608,190.164 189.403,190.164 189.250 C 190.164 189.097,190.365 188.972,190.611 188.972 C 190.857 188.972,191.058 188.860,191.058 188.724 C 191.058 188.588,191.393 188.297,191.803 188.077 C 192.213 187.858,192.548 187.500,192.548 187.282 C 192.548 187.064,192.698 186.919,192.880 186.960 C 193.173 187.026,195.367 184.284,195.324 183.905 C 195.274 183.468,195.633 183.039,195.905 183.208 C 196.104 183.330,196.158 183.169,196.054 182.769 C 195.935 182.314,196.053 182.085,196.476 181.950 C 196.800 181.848,196.994 181.693,196.908 181.608 C 196.822 181.522,197.233 180.997,197.821 180.442 C 198.410 179.888,198.775 179.434,198.634 179.434 C 198.493 179.434,198.658 179.237,199.002 178.996 C 199.652 178.540,200.231 177.169,199.611 177.552 C 199.428 177.665,199.579 177.248,199.947 176.625 C 200.314 176.002,200.541 175.258,200.450 174.972 C 200.355 174.673,200.503 174.274,200.796 174.036 C 201.233 173.681,201.270 173.682,201.054 174.040 C 200.879 174.330,200.912 174.391,201.160 174.237 C 201.358 174.115,201.485 173.793,201.444 173.521 C 201.402 173.248,201.540 172.713,201.750 172.331 C 201.960 171.950,202.061 171.451,201.973 171.223 C 201.886 170.995,201.954 170.722,202.125 170.617 C 202.296 170.511,202.370 170.172,202.289 169.862 C 202.209 169.553,202.262 169.226,202.408 169.136 C 202.554 169.046,202.658 168.677,202.639 168.316 C 202.620 167.955,202.736 167.115,202.897 166.449 C 203.058 165.784,203.148 163.034,203.096 160.339 C 202.979 154.240,202.989 154.396,202.721 154.396 C 202.599 154.396,202.527 153.994,202.561 153.502 C 202.595 153.009,202.508 152.536,202.368 152.449 C 202.227 152.362,202.188 152.094,202.280 151.853 C 202.373 151.613,202.312 151.416,202.146 151.416 C 201.980 151.416,201.920 151.127,202.012 150.773 C 202.120 150.359,202.067 150.201,201.861 150.327 C 201.673 150.444,201.577 150.311,201.627 150.001 C 201.674 149.714,201.578 149.311,201.416 149.106 C 201.253 148.901,201.196 148.733,201.289 148.733 C 201.383 148.733,201.319 148.331,201.148 147.839 C 200.976 147.348,200.743 147.003,200.629 147.074 C 200.515 147.144,200.401 146.932,200.377 146.602 C 200.352 146.273,200.162 145.799,199.955 145.550 C 199.748 145.300,199.552 144.942,199.519 144.754 C 199.389 144.017,198.488 142.176,198.257 142.176 C 198.123 142.176,198.013 141.998,198.013 141.780 C 198.013 141.238,196.167 138.597,195.650 138.398 C 195.420 138.310,195.231 137.971,195.231 137.645 C 195.231 137.305,194.979 136.987,194.638 136.898 C 194.312 136.813,194.116 136.629,194.202 136.489 C 194.289 136.349,193.892 135.929,193.320 135.554 C 192.749 135.180,192.219 134.637,192.144 134.349 C 192.068 134.060,191.590 133.649,191.080 133.435 C 190.571 133.220,190.239 132.960,190.343 132.856 C 190.447 132.752,190.182 132.579,189.754 132.472 C 189.326 132.364,189.040 132.173,189.118 132.046 C 189.196 131.920,188.838 131.732,188.323 131.629 C 187.808 131.526,187.472 131.356,187.576 131.251 C 187.964 130.864,182.309 127.545,181.453 127.657 C 181.006 127.716,180.604 127.666,180.559 127.546 C 180.514 127.427,180.075 127.288,179.583 127.238 C 179.091 127.187,178.495 127.007,178.259 126.837 C 177.921 126.594,177.884 126.623,178.086 126.975 C 178.247 127.253,178.099 127.207,177.695 126.852 C 177.338 126.539,176.958 126.370,176.851 126.477 C 176.744 126.584,176.479 126.523,176.261 126.343 C 176.043 126.162,175.666 126.090,175.423 126.183 C 175.180 126.276,174.904 126.227,174.809 126.073 C 174.416 125.437,163.580 126.084,162.138 126.830 C 161.641 127.087,161.116 127.224,160.971 127.134 C 160.825 127.044,160.661 127.109,160.604 127.277 C 160.548 127.446,160.102 127.657,159.613 127.745 C 159.124 127.834,158.521 128.082,158.274 128.296 C 158.027 128.510,157.656 128.625,157.452 128.550 C 157.247 128.476,157.079 128.569,157.079 128.756 C 157.079 128.943,156.954 129.019,156.802 128.925 C 156.649 128.830,156.443 128.884,156.345 129.043 C 156.246 129.203,155.998 129.269,155.792 129.190 C 155.587 129.111,155.127 129.318,154.771 129.650 C 154.415 129.982,153.950 130.254,153.738 130.255 C 153.526 130.256,152.817 130.753,152.161 131.361 C 151.505 131.968,150.770 132.497,150.527 132.535 C 150.284 132.574,150.041 132.739,149.986 132.903 C 149.932 133.067,149.698 133.128,149.468 133.040 C 148.958 132.844,149.964 130.646,150.848 130.023 C 151.144 129.815,151.561 129.470,151.774 129.257 C 152.218 128.813,152.231 128.806,153.130 128.571 C 153.499 128.474,153.800 128.299,153.800 128.182 C 153.800 127.944,154.277 127.857,156.036 127.775 C 157.149 127.723,157.228 127.661,157.228 126.826 L 157.228 125.931 154.396 125.870 C 152.839 125.837,151.498 125.791,151.416 125.768 C 150.979 125.648,146.301 125.777,146.078 125.915 C 145.933 126.004,145.738 125.877,145.644 125.632 C 145.477 125.195,145.316 125.167,144.113 125.366 M243.567 126.508 C 243.646 127.678,244.373 128.054,246.864 128.216 C 248.974 128.353,250.320 130.528,249.730 132.847 C 249.571 133.470,249.428 134.147,249.410 134.352 C 249.393 134.557,249.259 134.724,249.113 134.724 C 248.967 134.724,248.930 134.858,249.031 135.022 C 249.133 135.186,249.073 135.320,248.900 135.320 C 248.726 135.320,248.584 135.496,248.584 135.712 C 248.584 135.927,248.316 136.657,247.989 137.335 C 247.661 138.014,247.353 138.810,247.303 139.105 C 247.254 139.401,247.053 139.935,246.856 140.293 C 246.659 140.651,246.498 141.192,246.498 141.494 C 246.498 141.796,246.294 142.334,246.045 142.689 C 245.796 143.045,245.625 143.443,245.664 143.575 C 245.704 143.707,245.300 144.728,244.768 145.844 C 244.236 146.959,243.892 148.019,244.003 148.200 C 244.119 148.388,244.069 148.443,243.886 148.330 C 243.694 148.211,243.484 148.521,243.363 149.103 C 243.252 149.637,242.969 150.376,242.736 150.745 C 242.502 151.114,242.390 151.416,242.487 151.416 C 242.584 151.416,242.405 151.785,242.088 152.235 C 241.618 152.906,240.759 154.975,240.696 155.589 C 240.682 155.723,239.859 158.028,239.420 159.165 C 239.325 159.411,239.227 159.680,239.203 159.762 C 239.179 159.844,238.927 160.443,238.644 161.093 C 238.360 161.743,238.090 162.481,238.042 162.732 C 237.932 163.316,237.135 165.104,236.012 167.288 C 235.528 168.230,235.241 169.004,235.375 169.006 C 235.509 169.009,235.451 169.117,235.246 169.247 C 235.041 169.377,234.851 170.046,234.825 170.733 C 234.798 171.420,234.678 171.982,234.559 171.982 C 234.355 171.982,233.883 173.265,233.847 173.920 C 233.838 174.083,233.756 174.285,233.665 174.367 C 233.575 174.449,233.199 175.253,232.830 176.155 C 232.461 177.057,232.037 178.063,231.888 178.390 C 231.189 179.931,228.912 185.851,228.912 186.130 C 228.912 186.302,228.582 187.062,228.179 187.819 C 227.776 188.576,227.531 189.279,227.633 189.382 C 227.735 189.484,227.655 189.568,227.454 189.568 C 227.253 189.568,227.181 189.717,227.293 189.899 C 227.406 190.081,227.360 190.316,227.192 190.421 C 227.023 190.525,226.838 190.879,226.781 191.207 C 226.724 191.535,226.509 191.981,226.304 192.197 C 226.099 192.414,225.931 192.795,225.931 193.045 C 225.931 193.295,225.711 193.923,225.442 194.440 C 224.490 196.267,224.423 196.450,224.598 196.733 C 224.695 196.891,224.624 197.019,224.441 197.019 C 224.258 197.019,224.191 197.154,224.292 197.317 C 224.393 197.481,224.312 197.615,224.111 197.615 C 223.910 197.615,223.834 197.704,223.942 197.812 C 224.050 197.919,224.008 198.165,223.848 198.357 C 223.689 198.549,223.499 199.030,223.426 199.427 C 223.353 199.824,223.273 200.149,223.248 200.149 C 223.224 200.149,223.156 200.398,223.099 200.701 C 223.042 201.005,222.448 202.313,221.779 203.607 C 221.110 204.902,220.665 205.963,220.788 205.966 C 220.912 205.968,220.879 206.069,220.715 206.189 C 220.114 206.630,219.528 208.224,219.260 210.147 C 219.225 210.401,218.973 210.925,218.701 211.314 C 218.429 211.702,218.276 212.132,218.361 212.269 C 218.446 212.406,218.382 212.519,218.219 212.519 C 217.886 212.519,217.431 213.665,217.540 214.232 C 217.580 214.437,217.472 214.605,217.301 214.605 C 217.130 214.605,216.990 215.000,216.990 215.482 C 216.990 215.964,216.855 216.441,216.692 216.542 C 216.528 216.644,216.393 217.105,216.393 217.567 C 216.393 218.029,216.191 218.575,215.944 218.780 C 215.696 218.985,215.411 219.670,215.310 220.302 C 215.200 220.990,215.002 221.373,214.815 221.257 C 214.623 221.138,214.577 221.254,214.694 221.561 C 214.799 221.833,214.762 222.057,214.613 222.057 C 214.463 222.057,214.103 222.459,213.812 222.951 C 213.522 223.443,213.185 223.845,213.064 223.845 C 212.942 223.845,212.383 224.157,211.821 224.539 C 210.986 225.105,210.491 225.214,209.125 225.132 C 207.926 225.060,207.451 225.138,207.450 225.407 C 207.449 225.613,207.243 226.174,206.994 226.653 C 206.460 227.676,206.890 228.180,207.855 227.664 C 208.356 227.395,210.217 227.261,211.177 227.423 C 211.341 227.451,213.517 227.469,216.013 227.464 C 218.509 227.459,220.622 227.569,220.709 227.710 C 220.871 227.972,223.151 227.816,223.647 227.509 C 224.085 227.238,227.508 227.155,228.632 227.389 C 229.196 227.506,230.319 227.498,231.128 227.372 C 231.995 227.236,232.741 227.260,232.944 227.428 C 233.134 227.586,233.377 227.626,233.485 227.519 C 233.593 227.411,233.681 227.506,233.681 227.730 C 233.681 228.280,234.156 227.751,234.405 226.924 C 234.718 225.887,233.549 224.995,232.105 225.169 C 230.802 225.326,229.203 224.490,228.576 223.323 C 228.377 222.955,228.116 222.653,227.995 222.653 C 227.875 222.653,227.845 222.386,227.931 222.060 C 228.016 221.734,228.171 221.520,228.275 221.584 C 228.380 221.649,228.463 221.211,228.461 220.612 C 228.459 220.013,228.689 219.067,228.973 218.510 C 229.257 217.953,229.418 217.383,229.332 217.244 C 229.246 217.104,229.296 216.990,229.443 216.990 C 229.591 216.990,229.880 216.427,230.086 215.740 C 230.292 215.053,230.602 214.148,230.775 213.728 C 230.948 213.309,231.140 212.697,231.202 212.370 C 231.263 212.042,231.444 211.729,231.603 211.674 C 231.762 211.619,231.893 211.410,231.893 211.208 C 231.893 211.007,232.177 210.255,232.524 209.536 C 232.871 208.818,233.180 208.089,233.211 207.915 C 233.241 207.742,233.489 207.182,233.760 206.670 C 234.031 206.158,234.169 205.655,234.067 205.552 C 233.964 205.449,234.051 205.365,234.259 205.365 C 234.474 205.365,234.565 205.171,234.467 204.918 C 234.373 204.672,234.413 204.471,234.555 204.471 C 234.879 204.471,235.484 202.797,235.246 202.559 C 235.150 202.463,235.244 202.385,235.455 202.385 C 235.702 202.385,235.776 202.153,235.666 201.729 C 235.571 201.369,235.605 200.933,235.741 200.761 C 236.056 200.361,236.804 198.135,236.723 197.839 C 236.689 197.716,236.804 197.615,236.977 197.615 C 237.151 197.615,237.217 197.493,237.125 197.343 C 237.032 197.193,237.063 197.025,237.193 196.970 C 237.439 196.867,239.046 193.599,239.046 193.202 C 239.046 193.078,239.506 191.888,240.068 190.555 C 240.629 189.223,241.010 188.054,240.912 187.956 C 240.815 187.859,240.875 187.779,241.047 187.779 C 241.386 187.779,242.109 186.257,241.980 185.816 C 241.936 185.666,242.062 185.252,242.260 184.896 C 242.458 184.539,242.678 183.936,242.748 183.555 C 242.819 183.173,242.903 182.794,242.934 182.712 C 242.966 182.630,242.976 182.463,242.956 182.340 C 242.937 182.217,243.042 182.116,243.190 182.116 C 243.532 182.116,244.160 180.347,243.943 179.996 C 243.853 179.850,243.911 179.732,244.072 179.732 C 244.233 179.732,244.459 179.298,244.576 178.767 C 244.692 178.237,244.972 177.522,245.197 177.179 C 245.422 176.835,245.516 176.465,245.406 176.355 C 245.296 176.245,245.348 176.155,245.522 176.155 C 245.809 176.155,246.192 175.195,246.161 174.549 C 246.154 174.403,246.268 174.202,246.413 174.102 C 246.741 173.876,247.647 171.956,247.783 171.200 C 247.838 170.892,248.113 170.109,248.394 169.459 C 248.676 168.809,248.945 168.071,248.994 167.819 C 249.042 167.568,249.232 167.027,249.416 166.617 C 249.600 166.207,250.096 164.933,250.518 163.785 C 250.940 162.638,251.483 161.318,251.725 160.853 C 251.966 160.388,252.088 159.885,251.996 159.735 C 251.903 159.586,251.959 159.463,252.119 159.463 C 252.347 159.463,253.411 156.925,253.495 156.185 C 253.504 156.103,253.618 155.868,253.748 155.663 C 253.878 155.458,253.876 155.289,253.743 155.286 C 253.611 155.284,253.667 155.177,253.867 155.050 C 254.068 154.922,254.277 154.555,254.331 154.234 C 254.385 153.914,254.640 153.249,254.897 152.757 C 255.154 152.265,255.461 151.528,255.579 151.118 C 255.696 150.708,256.056 149.811,256.378 149.126 C 256.701 148.440,256.985 147.601,257.010 147.263 C 257.036 146.924,257.141 146.647,257.244 146.647 C 257.347 146.647,257.614 146.077,257.838 145.380 C 258.063 144.683,258.686 143.137,259.224 141.943 C 259.762 140.749,260.176 139.676,260.144 139.558 C 260.112 139.441,260.318 138.908,260.602 138.376 C 260.886 137.843,261.014 137.405,260.887 137.402 C 260.760 137.400,260.796 137.299,260.968 137.179 C 261.387 136.886,262.599 133.637,262.373 133.412 C 262.276 133.314,262.328 133.234,262.490 133.234 C 262.652 133.234,263.080 132.597,263.440 131.818 C 264.639 129.225,266.843 127.818,269.259 128.104 C 270.537 128.255,270.927 127.917,270.934 126.653 L 270.939 125.885 264.456 125.818 C 255.308 125.724,254.999 125.727,252.012 125.942 C 246.947 126.306,244.928 126.214,243.730 125.563 C 243.601 125.493,243.528 125.918,243.567 126.508 M171.684 127.926 C 171.684 128.039,171.949 128.082,172.274 128.019 C 172.598 127.957,172.938 128.026,173.029 128.172 C 173.119 128.319,173.369 128.372,173.583 128.289 C 173.798 128.207,174.144 128.346,174.353 128.597 C 174.561 128.849,174.842 128.987,174.976 128.904 C 175.110 128.821,175.304 128.890,175.407 129.056 C 175.510 129.223,175.786 129.359,176.020 129.359 C 176.254 129.359,176.720 129.594,177.055 129.881 C 177.390 130.168,177.717 130.335,177.780 130.253 C 177.843 130.171,178.263 130.440,178.713 130.849 C 179.162 131.259,179.433 131.427,179.315 131.222 C 178.910 130.520,179.383 130.851,180.806 132.265 C 181.589 133.044,181.902 133.279,181.503 132.787 L 180.777 131.893 181.742 132.765 C 182.272 133.245,182.647 133.697,182.574 133.770 C 182.466 133.877,183.513 135.428,184.728 136.960 C 185.233 137.596,186.716 140.259,186.777 140.637 C 186.812 140.856,187.034 141.259,187.271 141.531 C 187.508 141.804,187.641 142.194,187.567 142.399 C 187.492 142.604,187.585 142.772,187.772 142.772 C 187.959 142.772,188.039 142.891,187.949 143.036 C 187.860 143.182,187.984 143.465,188.227 143.666 C 188.469 143.867,188.597 144.145,188.512 144.283 C 188.426 144.421,188.583 145.043,188.859 145.665 C 189.136 146.287,189.343 146.892,189.319 147.009 C 189.296 147.126,189.421 147.596,189.598 148.052 C 190.010 149.117,190.175 149.873,190.219 150.894 C 190.239 151.345,190.335 151.714,190.433 151.714 C 190.622 151.714,190.692 152.310,190.826 155.067 C 190.872 156.010,190.977 156.781,191.060 156.781 C 191.202 156.781,191.213 166.005,191.070 166.319 C 191.033 166.401,190.975 167.007,190.941 167.667 C 190.907 168.326,190.776 169.032,190.650 169.236 C 190.524 169.441,190.453 169.907,190.492 170.273 C 190.532 170.639,190.412 171.463,190.226 172.103 C 190.040 172.744,189.971 173.401,190.072 173.565 C 190.176 173.733,190.106 173.770,189.912 173.650 C 189.686 173.510,189.552 173.725,189.522 174.275 C 189.497 174.735,189.446 175.246,189.408 175.410 C 189.370 175.574,189.307 175.842,189.269 176.006 C 189.231 176.170,189.218 176.415,189.242 176.550 C 189.265 176.685,189.126 176.697,188.932 176.578 C 188.687 176.426,188.631 176.555,188.748 177.003 C 188.840 177.357,188.794 177.571,188.646 177.479 C 188.409 177.332,188.365 177.432,188.379 178.094 C 188.380 178.177,187.909 179.182,187.332 180.328 C 186.755 181.474,186.275 182.513,186.265 182.636 C 186.255 182.760,186.055 182.969,185.821 183.100 C 185.587 183.231,185.395 183.489,185.395 183.672 C 185.395 183.856,185.160 184.275,184.873 184.603 C 184.488 185.044,184.468 185.140,184.799 184.973 C 185.045 184.849,184.911 185.039,184.501 185.395 C 184.091 185.751,183.957 185.954,184.203 185.846 C 184.449 185.737,184.389 185.860,184.071 186.118 C 183.753 186.376,183.603 186.587,183.739 186.587 C 183.874 186.587,183.625 186.871,183.184 187.217 C 182.743 187.564,182.459 187.924,182.553 188.017 C 182.773 188.237,180.910 190.164,180.478 190.164 C 180.297 190.164,179.993 190.320,179.803 190.510 C 179.613 190.700,179.099 190.894,178.662 190.941 C 177.793 191.033,176.377 192.184,176.629 192.592 C 176.715 192.732,176.611 192.862,176.396 192.881 C 176.182 192.900,175.872 192.946,175.708 192.985 C 175.544 193.023,175.100 193.074,174.722 193.099 C 174.343 193.124,174.103 193.257,174.188 193.394 C 174.272 193.531,173.945 193.620,173.460 193.591 C 172.975 193.562,172.578 193.659,172.578 193.806 C 172.578 193.953,172.476 194.011,172.351 193.933 C 172.226 193.856,171.119 193.695,169.892 193.575 C 168.664 193.456,167.457 193.337,167.208 193.312 C 166.959 193.286,166.590 193.163,166.388 193.038 C 166.186 192.913,165.866 192.907,165.677 193.024 C 165.449 193.165,165.414 193.105,165.574 192.846 C 165.754 192.554,165.652 192.497,165.173 192.623 C 164.757 192.732,164.600 192.678,164.728 192.470 C 164.854 192.267,164.744 192.219,164.430 192.339 C 164.158 192.444,163.934 192.416,163.934 192.277 C 163.934 191.990,162.125 191.174,161.751 191.293 C 161.616 191.336,161.591 191.234,161.694 191.066 C 161.864 190.791,161.479 190.630,160.879 190.725 C 160.756 190.744,160.656 190.573,160.656 190.345 C 160.656 189.960,160.148 189.595,159.733 189.680 C 159.404 189.748,158.574 188.907,158.726 188.660 C 158.809 188.526,158.720 188.320,158.528 188.201 C 158.289 188.054,158.259 188.118,158.431 188.404 C 158.646 188.761,158.609 188.762,158.179 188.414 C 157.902 188.189,157.675 187.834,157.675 187.626 C 157.675 187.418,157.474 187.170,157.228 187.076 C 156.982 186.981,156.781 186.646,156.781 186.330 C 156.781 186.015,156.580 185.680,156.334 185.585 C 156.088 185.491,155.887 185.186,155.887 184.908 C 155.887 184.629,155.802 184.486,155.698 184.590 C 155.594 184.694,155.085 183.907,154.567 182.840 C 154.049 181.774,153.558 180.967,153.477 181.049 C 153.396 181.130,153.307 180.909,153.281 180.559 C 153.255 180.208,153.031 179.807,152.784 179.669 C 152.521 179.522,152.412 179.216,152.522 178.930 C 152.647 178.605,152.594 178.513,152.364 178.655 C 152.138 178.795,152.080 178.708,152.196 178.406 C 152.294 178.152,152.252 177.943,152.102 177.943 C 151.953 177.943,151.797 177.383,151.757 176.698 C 151.717 176.013,151.593 175.309,151.483 175.133 C 151.373 174.957,151.275 174.680,151.266 174.516 C 151.221 173.696,150.741 172.280,150.507 172.280 C 150.362 172.280,150.319 172.079,150.414 171.833 C 150.508 171.587,150.456 171.386,150.298 171.386 C 149.856 171.386,149.569 168.120,149.580 163.205 C 149.585 160.754,149.499 158.608,149.389 158.436 C 149.144 158.051,149.112 154.694,149.354 154.694 C 149.450 154.694,149.535 154.527,149.543 154.322 C 149.552 154.117,149.700 153.353,149.873 152.624 C 150.045 151.895,150.120 151.191,150.038 151.059 C 149.957 150.927,150.025 150.820,150.189 150.820 C 150.353 150.820,150.436 150.551,150.373 150.224 C 150.309 149.896,150.372 149.627,150.512 149.627 C 150.652 149.627,150.729 149.393,150.683 149.106 C 150.637 148.819,150.681 148.450,150.781 148.286 C 151.177 147.640,151.673 145.928,151.531 145.698 C 151.448 145.564,151.523 145.455,151.696 145.455 C 151.870 145.455,152.012 145.216,152.012 144.925 C 152.012 144.633,152.236 144.075,152.511 143.683 C 152.785 143.292,152.853 143.067,152.663 143.185 C 152.437 143.325,152.378 143.239,152.494 142.938 C 152.591 142.685,152.791 142.552,152.937 142.642 C 153.084 142.733,153.204 142.657,153.204 142.473 C 153.204 141.698,155.671 136.981,156.360 136.439 C 156.773 136.114,157.050 135.788,156.975 135.713 C 156.901 135.639,157.196 135.203,157.630 134.745 C 158.065 134.286,158.917 133.374,159.525 132.718 C 160.133 132.062,161.117 131.294,161.713 131.012 C 162.308 130.729,163.044 130.250,163.348 129.946 C 163.652 129.642,164.143 129.352,164.439 129.302 C 164.735 129.251,165.143 129.054,165.345 128.864 C 165.547 128.674,165.983 128.589,166.314 128.675 C 166.644 128.762,166.915 128.716,166.915 128.574 C 166.915 128.432,167.250 128.291,167.660 128.260 C 168.070 128.229,168.741 128.179,169.151 128.148 C 169.560 128.118,169.896 128.003,169.896 127.894 C 169.896 127.784,170.298 127.700,170.790 127.707 C 171.282 127.713,171.684 127.812,171.684 127.926 M145.036 130.896 C 145.164 131.103,145.118 131.159,144.919 131.036 C 144.311 130.660,143.986 131.943,144.050 134.461 C 144.109 136.803,144.155 136.966,144.784 137.055 C 145.474 137.153,145.667 137.538,145.177 137.841 C 145.024 137.936,144.815 137.876,144.712 137.710 C 144.154 136.807,143.966 137.751,143.985 141.356 C 143.998 143.840,144.101 145.084,144.262 144.709 C 144.403 144.382,144.528 144.213,144.539 144.334 C 144.551 144.455,144.822 144.331,145.141 144.057 C 145.461 143.784,145.652 143.446,145.566 143.308 C 145.480 143.169,145.521 143.074,145.656 143.098 C 146.234 143.198,146.670 143.051,146.519 142.806 C 146.429 142.660,146.555 142.376,146.799 142.173 C 147.380 141.691,147.384 142.155,146.811 143.527 C 146.573 144.095,146.444 144.560,146.523 144.560 C 146.603 144.560,146.524 144.829,146.349 145.156 C 146.173 145.484,146.152 145.753,146.301 145.753 C 146.450 145.753,146.572 146.102,146.572 146.530 C 146.572 147.083,146.497 147.190,146.311 146.902 C 145.958 146.354,145.460 147.095,145.621 147.931 C 145.684 148.255,145.645 148.667,145.534 148.845 C 145.340 149.160,145.193 149.823,145.083 150.894 C 145.053 151.181,144.901 151.416,144.745 151.416 C 144.589 151.416,144.530 151.485,144.614 151.569 C 144.699 151.654,144.600 152.693,144.394 153.879 C 144.149 155.296,144.066 157.825,144.154 161.252 C 144.227 164.121,144.287 166.837,144.287 167.288 C 144.286 167.738,144.381 168.107,144.498 168.107 C 144.614 168.107,144.724 168.476,144.741 168.927 C 144.800 170.459,144.988 171.386,145.239 171.386 C 145.377 171.386,145.403 171.526,145.297 171.697 C 145.192 171.868,145.260 172.194,145.448 172.422 C 145.637 172.649,145.803 173.247,145.817 173.750 C 145.832 174.253,145.934 174.665,146.045 174.665 C 146.156 174.665,146.246 174.899,146.245 175.186 C 146.238 176.785,146.370 177.369,146.693 177.170 C 146.896 177.044,146.956 177.087,146.840 177.276 C 146.731 177.452,146.785 177.969,146.958 178.426 C 147.263 179.226,147.254 179.238,146.713 178.748 C 146.404 178.469,146.081 178.311,145.994 178.397 C 145.908 178.483,145.651 178.316,145.423 178.025 C 145.037 177.534,145.050 177.527,145.604 177.938 C 146.194 178.376,146.194 178.374,145.630 177.713 C 145.317 177.346,144.995 177.111,144.915 177.192 C 144.834 177.272,144.588 177.105,144.367 176.821 C 144.012 176.364,143.973 176.433,144.026 177.422 C 144.059 178.037,144.193 178.539,144.323 178.539 C 144.454 178.539,144.560 178.682,144.560 178.855 C 144.560 179.029,144.426 179.088,144.262 178.987 C 143.802 178.702,143.874 184.582,144.337 185.081 C 144.635 185.403,144.634 185.440,144.332 185.269 C 144.030 185.098,143.958 188.054,143.970 200.140 C 143.979 209.759,144.089 215.159,144.273 215.046 C 144.431 214.948,144.560 215.152,144.560 215.499 C 144.560 215.846,144.426 216.048,144.262 215.946 C 144.088 215.839,143.954 216.172,143.940 216.748 C 143.894 218.653,143.736 220.732,143.503 222.504 C 143.373 223.487,143.261 224.517,143.254 224.792 C 143.246 225.067,143.118 225.216,142.968 225.123 C 142.817 225.030,142.761 225.141,142.842 225.368 C 142.923 225.596,142.879 225.998,142.744 226.262 C 142.609 226.525,142.465 227.229,142.425 227.826 C 142.385 228.424,142.245 228.912,142.115 228.912 C 141.985 228.912,141.900 229.013,141.927 229.136 C 141.954 229.259,141.878 229.702,141.760 230.122 C 141.641 230.541,141.495 231.145,141.435 231.463 C 141.376 231.781,141.307 232.042,141.282 232.042 C 141.257 232.042,141.187 232.308,141.126 232.632 C 141.066 232.957,140.877 233.270,140.707 233.326 C 140.537 233.383,140.258 233.949,140.087 234.585 C 139.916 235.221,139.584 235.932,139.351 236.166 C 139.117 236.399,138.989 236.655,139.068 236.733 C 139.146 236.811,138.972 237.062,138.681 237.290 C 138.200 237.667,138.189 237.658,138.561 237.183 C 138.786 236.896,138.870 236.662,138.748 236.662 C 138.626 236.662,138.693 236.461,138.897 236.215 C 139.101 235.969,139.182 235.768,139.076 235.768 C 138.970 235.768,139.099 235.438,139.363 235.035 C 139.627 234.633,139.756 234.163,139.650 233.992 C 139.545 233.821,139.572 233.681,139.712 233.681 C 139.851 233.681,139.980 233.312,139.998 232.861 C 140.038 231.862,140.179 231.270,140.496 230.762 C 140.628 230.550,140.775 229.861,140.822 229.231 C 140.869 228.600,140.988 227.954,141.087 227.794 C 141.185 227.634,141.342 226.714,141.435 225.749 C 141.527 224.784,141.675 223.458,141.763 222.802 C 141.851 222.146,141.988 212.102,142.068 200.482 L 142.213 179.354 141.598 179.515 C 141.193 179.621,140.984 179.533,140.984 179.257 C 140.984 179.026,141.243 178.838,141.559 178.838 C 142.221 178.838,142.447 174.903,141.827 174.157 C 141.597 173.879,141.601 173.770,141.841 173.770 C 142.025 173.770,142.174 173.536,142.171 173.249 C 142.167 172.803,142.125 172.792,141.878 173.174 C 141.704 173.443,141.587 173.480,141.584 173.266 C 141.582 173.071,141.718 172.826,141.887 172.722 C 142.265 172.488,142.265 132.132,141.887 131.898 C 141.749 131.813,141.706 131.475,141.792 131.147 C 141.970 130.465,144.642 130.258,145.036 130.896 M257.884 131.726 C 257.519 131.982,256.352 135.239,256.554 135.441 C 256.651 135.539,256.575 135.618,256.384 135.618 C 256.192 135.618,256.036 135.927,256.036 136.304 C 256.036 136.681,255.892 137.133,255.717 137.308 C 255.542 137.484,255.360 137.812,255.314 138.039 C 255.267 138.265,255.000 138.969,254.720 139.603 C 254.440 140.236,254.292 140.969,254.392 141.230 C 254.506 141.525,254.316 141.905,253.889 142.236 C 253.305 142.689,253.270 142.811,253.651 143.063 C 254.049 143.326,254.049 143.360,253.651 143.365 C 253.366 143.368,252.846 144.311,252.211 145.977 C 250.994 149.172,250.711 149.857,250.191 150.860 C 249.966 151.292,249.737 151.896,249.680 152.201 C 249.623 152.507,249.435 153.092,249.262 153.502 C 249.089 153.912,248.716 154.851,248.432 155.589 C 248.149 156.326,247.805 157.198,247.669 157.526 C 247.533 157.854,247.013 159.108,246.514 160.313 C 246.014 161.518,245.692 162.645,245.799 162.818 C 245.913 163.002,245.851 163.044,245.650 162.920 C 245.460 162.803,245.306 162.864,245.306 163.056 C 245.306 163.248,244.422 165.637,243.342 168.364 C 242.261 171.092,240.502 175.537,239.431 178.241 C 238.361 180.946,237.316 183.562,237.109 184.054 C 236.902 184.545,235.765 187.429,234.581 190.462 C 233.397 193.495,232.241 196.399,232.011 196.915 C 231.782 197.432,231.595 197.936,231.595 198.036 C 231.595 198.136,231.333 198.787,231.012 199.482 C 230.041 201.590,229.207 203.875,229.410 203.875 C 229.515 203.875,229.394 204.110,229.143 204.396 C 228.891 204.683,228.592 205.253,228.480 205.663 C 228.367 206.073,228.097 206.811,227.880 207.303 C 226.849 209.638,225.614 212.736,225.502 213.268 C 225.434 213.594,225.100 214.423,224.760 215.112 C 224.421 215.801,224.143 216.695,224.143 217.099 C 224.143 217.503,224.013 217.879,223.854 217.933 C 223.573 218.030,223.169 220.183,223.123 221.833 C 223.100 222.634,223.059 222.653,221.311 222.648 C 220.328 222.646,219.666 222.545,219.842 222.425 C 220.017 222.304,220.636 220.931,221.218 219.374 C 222.397 216.215,231.367 193.669,232.186 191.803 C 232.474 191.148,232.805 190.276,232.921 189.866 C 233.038 189.456,233.373 188.584,233.666 187.928 C 234.477 186.117,234.656 185.395,234.297 185.395 C 233.798 185.395,233.925 184.854,234.450 184.746 C 234.847 184.665,236.657 180.727,236.661 179.936 C 236.661 179.803,237.007 178.938,237.430 178.014 C 237.852 177.091,238.216 176.093,238.238 175.798 C 238.261 175.502,238.370 175.261,238.481 175.261 C 238.592 175.261,238.788 174.892,238.915 174.441 C 239.244 173.278,239.121 173.590,240.499 170.413 C 240.838 169.633,241.109 168.962,241.103 168.923 C 241.085 168.819,241.708 167.208,242.165 166.174 C 242.384 165.680,242.810 164.538,243.112 163.636 C 243.414 162.735,243.756 161.926,243.871 161.840 C 243.987 161.754,244.163 161.221,244.262 160.656 C 244.362 160.090,244.555 159.557,244.692 159.471 C 245.082 159.225,245.916 157.045,245.733 156.749 C 245.642 156.603,245.692 156.483,245.844 156.483 C 246.143 156.483,247.558 152.930,247.435 152.486 C 247.394 152.337,247.472 152.136,247.609 152.039 C 247.745 151.942,248.238 150.857,248.704 149.627 C 249.169 148.398,249.869 146.612,250.259 145.658 C 250.650 144.705,250.969 143.733,250.969 143.497 C 250.969 143.262,251.070 143.070,251.195 143.070 C 251.371 143.070,252.800 139.593,252.910 138.897 C 252.923 138.815,253.309 137.972,253.767 137.022 C 254.225 136.073,254.531 135.117,254.447 134.898 C 254.363 134.678,254.422 134.371,254.579 134.214 C 254.812 133.981,254.999 133.006,255.124 131.371 C 255.134 131.248,255.536 131.148,256.018 131.148 C 256.500 131.148,256.990 130.993,257.107 130.804 C 257.254 130.567,257.442 130.630,257.721 131.010 C 257.941 131.312,258.015 131.634,257.884 131.726 M145.527 136.115 C 145.321 136.198,145.211 136.360,145.283 136.476 C 145.355 136.592,145.138 136.708,144.803 136.733 C 144.213 136.777,144.211 136.764,144.749 136.357 C 145.055 136.125,145.440 135.942,145.604 135.950 C 145.768 135.957,145.733 136.032,145.527 136.115 M149.018 138.691 L 149.004 139.642 148.612 138.748 C 148.206 137.821,148.272 137.271,148.754 137.569 C 148.906 137.663,149.025 138.168,149.018 138.691 M147.782 139.081 C 147.517 139.347,147.139 139.464,146.942 139.342 C 146.524 139.084,147.092 138.611,147.828 138.604 C 148.192 138.600,148.185 138.679,147.782 139.081 M255.589 142.623 C 255.589 142.787,255.287 142.964,254.918 143.016 C 254.457 143.082,254.247 142.959,254.247 142.623 C 254.247 142.287,254.457 142.164,254.918 142.230 C 255.287 142.282,255.589 142.459,255.589 142.623 M254.545 144.411 C 254.545 144.657,254.411 144.858,254.247 144.858 C 254.083 144.858,253.949 144.657,253.949 144.411 C 253.949 144.165,254.083 143.964,254.247 143.964 C 254.411 143.964,254.545 144.165,254.545 144.411 M195.204 146.946 C 195.493 147.764,195.789 148.374,195.863 148.300 C 195.937 148.226,196.023 148.473,196.054 148.848 C 196.085 149.224,196.314 149.922,196.563 150.399 C 196.812 150.876,197.017 151.556,197.018 151.910 C 197.019 152.419,197.158 152.523,197.690 152.411 C 198.270 152.288,198.292 152.313,197.851 152.595 C 197.571 152.775,197.400 153.086,197.470 153.287 C 197.625 153.726,197.884 155.062,198.092 156.483 C 198.360 158.321,198.420 163.457,198.184 164.382 C 197.913 165.439,197.594 167.388,197.537 168.331 C 197.515 168.700,197.373 169.001,197.223 169.001 C 197.073 169.001,197.020 169.270,197.106 169.598 C 197.204 169.974,197.144 170.122,196.945 169.999 C 196.741 169.873,196.688 170.033,196.796 170.446 C 196.904 170.862,196.851 171.019,196.643 170.890 C 196.440 170.765,196.392 170.874,196.512 171.188 C 196.617 171.461,196.573 171.684,196.414 171.684 C 196.255 171.684,196.144 171.785,196.168 171.908 C 196.191 172.031,196.028 172.601,195.805 173.174 C 195.582 173.748,195.432 174.328,195.472 174.463 C 195.511 174.598,195.384 174.610,195.188 174.489 C 194.943 174.337,194.893 174.428,195.028 174.780 C 195.144 175.084,195.105 175.218,194.930 175.110 C 194.767 175.010,194.635 175.129,194.635 175.375 C 194.635 175.621,194.513 175.897,194.363 175.990 C 194.056 176.180,194.109 175.389,194.425 175.073 C 194.538 174.961,194.478 174.685,194.292 174.462 C 194.027 174.142,194.055 174.093,194.421 174.234 C 194.745 174.358,194.864 174.256,194.811 173.897 C 194.770 173.614,194.923 172.838,195.153 172.172 C 196.115 169.379,196.614 159.543,196.040 154.694 C 195.933 153.793,195.767 152.321,195.671 151.424 C 195.576 150.526,195.404 149.721,195.290 149.635 C 195.175 149.549,195.063 149.277,195.040 149.031 C 195.017 148.785,194.906 148.182,194.794 147.690 C 194.682 147.198,194.578 146.596,194.563 146.352 C 194.548 146.108,194.357 145.730,194.138 145.511 C 193.920 145.293,193.741 144.980,193.741 144.816 C 193.741 144.141,194.717 145.561,195.204 146.946 M146.390 150.134 C 146.084 150.255,146.072 150.351,146.340 150.516 C 146.598 150.676,146.567 150.787,146.225 150.918 C 145.943 151.026,145.753 150.943,145.753 150.711 C 145.753 150.230,146.048 149.918,146.473 149.949 C 146.651 149.962,146.613 150.045,146.390 150.134 M122.206 161.550 C 122.206 161.733,122.074 161.802,121.914 161.703 C 121.452 161.417,120.415 162.113,120.112 162.912 C 119.959 163.313,119.664 163.606,119.455 163.564 C 119.247 163.522,119.110 163.655,119.151 163.860 C 119.192 164.065,119.094 164.232,118.934 164.232 C 118.604 164.232,116.711 166.236,116.654 166.646 C 116.634 166.794,116.600 167.040,116.580 167.192 C 116.559 167.345,116.241 167.513,115.872 167.565 C 115.438 167.627,115.196 167.871,115.187 168.256 C 115.180 168.584,115.030 168.825,114.854 168.791 C 114.679 168.757,114.216 169.081,113.825 169.510 C 113.434 169.939,113.282 170.193,113.487 170.075 C 113.692 169.957,113.860 169.942,113.860 170.043 C 113.860 170.143,113.458 170.365,112.966 170.536 C 112.474 170.708,112.072 171.044,112.072 171.284 C 112.072 171.523,111.959 171.650,111.822 171.565 C 111.523 171.380,109.554 173.396,109.285 174.162 C 109.180 174.459,108.975 174.628,108.828 174.537 C 108.498 174.333,107.004 176.243,107.004 176.870 C 107.004 177.121,107.276 177.472,107.609 177.650 C 107.941 177.828,108.141 178.091,108.052 178.235 C 107.963 178.379,108.160 178.582,108.490 178.687 C 108.821 178.792,109.091 179.003,109.091 179.156 C 109.091 179.309,109.252 179.400,109.450 179.359 C 109.647 179.318,109.825 179.419,109.845 179.583 C 109.897 180.019,112.984 183.157,113.376 183.173 C 113.560 183.180,113.683 183.332,113.648 183.510 C 113.614 183.688,113.880 184.084,114.239 184.391 C 114.884 184.940,114.887 184.939,114.456 184.352 C 114.025 183.763,114.027 183.763,114.678 184.317 C 115.040 184.626,115.264 184.996,115.175 185.139 C 115.087 185.282,115.224 185.480,115.480 185.578 C 115.737 185.676,115.946 185.912,115.946 186.101 C 115.946 186.291,116.248 186.583,116.617 186.751 C 116.986 186.919,117.261 187.199,117.228 187.374 C 117.195 187.549,118.017 188.517,119.055 189.525 C 121.241 191.647,122.391 192.065,123.367 191.089 C 123.712 190.744,123.893 190.458,123.770 190.453 C 123.648 190.448,123.780 190.308,124.065 190.142 C 124.350 189.976,124.732 189.562,124.914 189.221 C 125.175 188.735,125.165 188.652,124.867 188.836 C 124.594 189.004,124.545 188.922,124.692 188.540 C 124.843 188.147,124.779 188.056,124.445 188.184 C 124.197 188.279,123.994 188.217,123.994 188.047 C 123.994 187.634,123.228 186.885,122.805 186.885 C 122.620 186.885,122.542 186.766,122.632 186.621 C 122.722 186.476,122.596 186.191,122.351 185.988 C 122.107 185.786,121.906 185.737,121.903 185.880 C 121.901 186.023,121.730 185.805,121.523 185.395 C 121.317 184.985,120.859 184.608,120.506 184.557 C 120.153 184.507,119.687 184.246,119.470 183.979 C 119.137 183.567,119.143 183.532,119.507 183.752 C 120.044 184.076,118.856 182.374,118.139 181.792 C 117.687 181.425,117.654 181.429,117.878 181.818 C 118.042 182.103,117.902 182.061,117.495 181.704 C 117.143 181.395,116.928 181.023,117.019 180.877 C 117.109 180.731,117.072 180.648,116.937 180.693 C 116.802 180.738,116.692 180.685,116.692 180.575 C 116.692 180.231,115.263 178.838,114.910 178.838 C 114.502 178.838,112.668 176.990,112.668 176.580 C 112.668 176.419,112.969 176.029,113.338 175.713 C 113.707 175.397,114.009 175.194,114.009 175.261 C 114.009 175.396,115.009 174.600,116.210 173.510 C 116.639 173.120,116.721 172.982,116.393 173.203 C 115.927 173.516,115.954 173.428,116.520 172.793 C 117.267 171.954,117.631 171.725,117.259 172.326 C 117.127 172.539,117.177 172.589,117.391 172.458 C 117.580 172.341,117.735 172.082,117.735 171.882 C 117.735 171.501,118.770 170.492,119.160 170.492 C 119.551 170.492,124.590 165.284,124.590 164.880 C 124.590 164.668,124.696 164.561,124.826 164.641 C 124.956 164.722,125.082 164.528,125.106 164.212 C 125.145 163.695,124.861 163.499,124.218 163.601 C 124.095 163.620,123.994 163.502,123.994 163.338 C 123.994 163.174,123.826 163.074,123.621 163.115 C 123.417 163.156,123.282 163.022,123.323 162.817 C 123.364 162.612,123.264 162.444,123.100 162.444 C 122.936 162.444,122.802 162.251,122.802 162.015 C 122.802 161.778,122.668 161.502,122.504 161.401 C 122.340 161.300,122.206 161.367,122.206 161.550 M273.174 161.599 C 270.818 162.899,270.261 165.723,272.361 165.723 C 272.484 165.723,272.755 165.996,272.963 166.330 C 273.172 166.665,273.439 166.887,273.557 166.825 C 273.768 166.713,274.743 167.598,274.888 168.033 C 274.929 168.156,275.063 168.223,275.186 168.182 C 275.309 168.141,275.410 168.283,275.410 168.498 C 275.410 168.871,279.735 173.051,280.650 173.563 C 280.890 173.697,281.008 173.933,280.913 174.087 C 280.818 174.241,280.957 174.367,281.222 174.367 C 281.487 174.367,281.621 174.502,281.519 174.667 C 281.417 174.832,281.543 175.047,281.799 175.146 C 282.056 175.244,282.265 175.519,282.265 175.757 C 282.265 175.995,282.371 176.125,282.500 176.045 C 282.629 175.965,282.760 176.205,282.791 176.577 C 282.829 177.034,282.597 177.388,282.080 177.665 C 281.658 177.890,280.991 178.458,280.597 178.926 C 280.203 179.394,279.881 179.674,279.881 179.547 C 279.881 179.315,279.508 179.697,276.045 183.474 C 275.001 184.612,273.504 186.224,272.717 187.056 C 270.933 188.943,270.887 189.161,271.984 190.537 C 273.278 192.157,274.466 192.109,275.672 190.387 C 276.590 189.076,278.019 187.624,281.416 184.548 C 282.507 183.561,283.323 182.677,283.229 182.584 C 283.136 182.491,283.235 182.414,283.449 182.414 C 284.028 182.414,288.024 178.251,288.591 177.057 C 289.068 176.053,289.063 176.009,288.419 175.567 C 287.709 175.080,281.625 169.001,281.847 169.001 C 281.920 169.001,280.914 167.917,279.611 166.591 C 278.308 165.265,277.169 163.990,277.079 163.757 C 276.990 163.523,276.751 163.368,276.549 163.410 C 276.347 163.453,276.176 163.320,276.169 163.115 C 276.161 162.910,276.079 162.776,275.986 162.817 C 275.893 162.858,275.476 162.522,275.058 162.072 C 274.218 161.165,274.041 161.121,273.174 161.599 M147.839 169.877 C 147.839 170.031,147.580 170.137,147.264 170.113 C 146.947 170.090,146.754 169.964,146.834 169.834 C 147.038 169.503,147.839 169.538,147.839 169.877 M140.984 186.800 C 140.984 187.310,140.546 187.287,140.103 186.753 C 139.811 186.400,139.858 186.331,140.365 186.369 C 140.705 186.395,140.984 186.589,140.984 186.800 M141.432 188.373 C 141.354 188.499,141.020 188.672,140.690 188.759 C 140.282 188.866,140.159 188.805,140.308 188.571 C 140.429 188.382,140.546 188.126,140.569 188.003 C 140.592 187.880,140.628 187.696,140.648 187.594 C 140.669 187.492,140.885 187.574,141.129 187.777 C 141.373 187.979,141.510 188.248,141.432 188.373 " stroke="none" fill="#ac94fc" fill-rule="evenodd"></path><path id="path1" d="M148.659 125.695 C 149.028 125.766,149.631 125.766,150.000 125.695 C 150.369 125.624,150.067 125.566,149.329 125.566 C 148.592 125.566,148.290 125.624,148.659 125.695 M156.082 125.708 C 156.006 125.831,156.266 125.931,156.660 125.931 C 157.055 125.931,157.377 125.831,157.377 125.708 C 157.377 125.585,157.117 125.484,156.799 125.484 C 156.480 125.484,156.158 125.585,156.082 125.708 M169.193 125.713 C 169.115 125.839,169.610 125.899,170.293 125.847 C 172.299 125.692,172.543 125.556,170.882 125.519 C 170.031 125.500,169.271 125.587,169.193 125.713 M180.924 132.135 C 180.924 132.186,181.360 132.622,181.893 133.104 L 182.861 133.979 181.986 133.010 C 181.170 132.107,180.924 131.905,180.924 132.135 M144.635 136.416 C 144.266 136.673,143.964 137.011,143.964 137.166 C 143.964 137.322,144.176 137.237,144.435 136.978 C 144.694 136.719,145.051 136.596,145.227 136.705 C 145.407 136.817,145.461 136.764,145.350 136.584 C 145.241 136.409,145.321 136.198,145.527 136.115 C 145.733 136.032,145.768 135.960,145.604 135.956 C 145.440 135.951,145.004 136.158,144.635 136.416 M137.476 137.109 C 137.476 137.683,137.537 137.917,137.612 137.630 C 137.687 137.344,137.687 136.874,137.612 136.587 C 137.537 136.300,137.476 136.535,137.476 137.109 M155.345 137.556 C 155.158 137.966,155.054 138.301,155.114 138.301 C 155.173 138.301,155.442 137.966,155.710 137.556 C 155.979 137.146,156.083 136.811,155.941 136.811 C 155.800 136.811,155.532 137.146,155.345 137.556 M186.045 139.642 C 186.232 140.052,186.500 140.387,186.642 140.387 C 186.783 140.387,186.679 140.052,186.411 139.642 C 186.142 139.232,185.874 138.897,185.814 138.897 C 185.755 138.897,185.859 139.232,186.045 139.642 M254.090 141.269 C 254.222 141.482,254.167 141.744,253.963 141.870 C 253.689 142.039,253.701 142.131,254.012 142.251 C 254.509 142.441,254.663 141.390,254.182 141.092 C 253.977 140.966,253.943 141.031,254.090 141.269 M193.741 144.792 C 193.741 144.969,193.950 145.324,194.207 145.580 C 194.463 145.836,194.577 146.202,194.459 146.393 C 194.326 146.608,194.375 146.658,194.589 146.526 C 195.073 146.227,195.021 145.945,194.337 145.156 C 194.009 144.778,193.741 144.614,193.741 144.792 M145.900 146.053 C 145.798 146.218,145.908 146.546,146.143 146.782 C 146.517 147.155,146.572 147.116,146.572 146.482 C 146.572 145.735,146.231 145.517,145.900 146.053 M145.951 150.124 C 145.554 150.521,145.753 151.099,146.225 150.918 C 146.567 150.787,146.598 150.676,146.340 150.516 C 146.072 150.351,146.084 150.255,146.390 150.134 C 146.613 150.045,146.651 149.962,146.473 149.949 C 146.295 149.936,146.061 150.015,145.951 150.124 M191.139 162.146 C 191.139 162.884,191.197 163.186,191.268 162.817 C 191.340 162.448,191.340 161.844,191.268 161.475 C 191.197 161.107,191.139 161.408,191.139 162.146 M137.223 169.747 C 137.223 171.714,137.271 172.480,137.330 171.449 C 137.388 170.418,137.388 168.808,137.329 167.872 C 137.270 166.936,137.222 167.779,137.223 169.747 M114.821 168.242 C 114.890 169.077,115.142 168.985,115.207 168.101 C 115.231 167.777,115.140 167.511,115.006 167.511 C 114.871 167.511,114.788 167.840,114.821 168.242 M116.520 172.766 C 115.831 173.514,115.828 173.532,116.462 173.145 C 116.828 172.923,117.193 172.570,117.273 172.361 C 117.486 171.805,117.327 171.891,116.520 172.766 M113.562 177.794 C 114.118 178.368,114.640 178.838,114.722 178.838 C 114.804 178.838,114.416 178.368,113.860 177.794 C 113.304 177.221,112.782 176.751,112.700 176.751 C 112.618 176.751,113.006 177.221,113.562 177.794 M187.034 180.328 C 186.456 181.475,186.051 182.414,186.133 182.414 C 186.215 182.414,186.754 181.475,187.332 180.328 C 187.910 179.180,188.316 178.241,188.234 178.241 C 188.152 178.241,187.612 179.180,187.034 180.328 M136.911 181.222 C 136.911 182.452,136.964 182.955,137.028 182.340 C 137.092 181.725,137.092 180.719,137.028 180.104 C 136.964 179.490,136.911 179.993,136.911 181.222 M116.244 180.421 C 116.244 180.472,116.672 180.908,117.194 181.390 L 118.144 182.265 117.418 181.313 C 116.801 180.504,116.244 180.081,116.244 180.421 M116.542 187.034 C 116.747 187.280,117.048 187.481,117.212 187.481 C 117.378 187.481,117.346 187.284,117.139 187.034 C 116.935 186.788,116.633 186.587,116.469 186.587 C 116.303 186.587,116.335 186.785,116.542 187.034 M157.675 187.670 C 157.675 187.833,158.077 188.351,158.569 188.823 C 159.061 189.294,159.463 189.611,159.463 189.528 C 159.463 189.445,159.061 188.926,158.569 188.376 C 158.077 187.825,157.675 187.507,157.675 187.670 M181.288 189.141 C 180.751 189.704,180.423 190.164,180.559 190.164 C 180.695 190.164,181.262 189.694,181.818 189.121 C 182.374 188.547,182.702 188.087,182.547 188.098 C 182.392 188.109,181.826 188.579,181.288 189.141 M137.211 190.909 C 137.212 192.221,137.264 192.720,137.327 192.019 C 137.390 191.318,137.389 190.245,137.325 189.634 C 137.261 189.024,137.210 189.598,137.211 190.909 M226.602 227.329 C 226.889 227.404,227.358 227.404,227.645 227.329 C 227.932 227.254,227.697 227.193,227.124 227.193 C 226.550 227.193,226.315 227.254,226.602 227.329 M212.891 227.627 C 213.178 227.702,213.648 227.702,213.934 227.627 C 214.221 227.552,213.987 227.491,213.413 227.491 C 212.839 227.491,212.604 227.552,212.891 227.627 M138.860 236.215 C 138.839 236.297,138.804 236.464,138.781 236.587 C 138.758 236.710,138.615 237.012,138.463 237.258 C 138.225 237.643,138.256 237.649,138.688 237.299 C 138.963 237.075,139.122 236.785,139.041 236.653 C 138.960 236.522,139.062 236.347,139.268 236.264 C 139.565 236.144,139.566 236.108,139.270 236.089 C 139.065 236.076,138.880 236.133,138.860 236.215 " stroke="none" fill="#ac8cfc" fill-rule="evenodd"></path><path id="path2" d="M113.711 177.645 C 114.351 178.301,114.942 178.838,115.024 178.838 C 115.106 178.838,114.649 178.301,114.009 177.645 C 113.369 176.990,112.778 176.453,112.696 176.453 C 112.614 176.453,113.071 176.990,113.711 177.645 " stroke="none" fill="#b094fc" fill-rule="evenodd"></path><path id="path3" d="M113.711 177.645 C 114.351 178.301,114.942 178.838,115.024 178.838 C 115.106 178.838,114.649 178.301,114.009 177.645 C 113.369 176.990,112.778 176.453,112.696 176.453 C 112.614 176.453,113.071 176.990,113.711 177.645 " stroke="none" fill="#b094fc" fill-rule="evenodd"></path><path id="path4" d="M113.711 177.645 C 114.351 178.301,114.942 178.838,115.024 178.838 C 115.106 178.838,114.649 178.301,114.009 177.645 C 113.369 176.990,112.778 176.453,112.696 176.453 C 112.614 176.453,113.071 176.990,113.711 177.645 " stroke="none" fill="#b094fc" fill-rule="evenodd"></path></g></svg>
